<svg width="90" height="120" viewBox="0 0 90 120" fill="none" xmlns="http://www.w3.org/2000/svg">
<g filter="url(#filter0_d_0_262)">
<ellipse cx="59.8654" cy="59.043" rx="0.128551" ry="0.849674" fill="white"/>
</g>
<path d="M0.0754168 0.734713L0.077051 0.770253C0.0779344 0.768479 0.0787378 0.765293 0.0793906 0.760978L0.0754168 0.734713ZM0.0595691 0.750314V0.787458H0.0595727L0.0595691 0.750314ZM0.113519 0.393729L0.119138 0.393753V0.393729H0.113519ZM0.111158 0.498476L0.115132 0.524741C0.115785 0.520426 0.116267 0.515116 0.116535 0.509277L0.111158 0.498476ZM0.0737826 0.699173C0.0691735 0.708433 0.0643828 0.713149 0.0595655 0.713169L0.0595727 0.787458C0.065495 0.787431 0.0713845 0.781634 0.077051 0.770253L0.0737826 0.699173ZM0.0595691 0.713169C0.0500105 0.713169 0.0406664 0.694434 0.0327186 0.659334L0.0264743 0.721103C0.0362704 0.764366 0.0477875 0.787458 0.0595691 0.787458V0.713169ZM0.0327186 0.659334C0.0247709 0.624234 0.0185763 0.574345 0.0149184 0.515975L0.00453445 0.544404C0.0090431 0.616348 0.0166782 0.677838 0.0264743 0.721103L0.0327186 0.659334ZM0.0149184 0.515975C0.0112604 0.457602 0.0103033 0.393375 0.0121681 0.331409L0.00114462 0.316916C-0.00115385 0.393292 2.58017e-05 0.472457 0.00453445 0.544404L0.0149184 0.515975ZM0.0121681 0.331409C0.0140329 0.269444 0.0186359 0.212525 0.0253949 0.167851L0.0174474 0.115321C0.00911652 0.170385 0.00344312 0.24054 0.00114462 0.316916L0.0121681 0.331409ZM0.0253949 0.167851C0.0321539 0.123176 0.0407655 0.0927521 0.0501405 0.0804265L0.0479478 0.00756551C0.0363925 0.0227577 0.0257783 0.0602567 0.0174474 0.115321L0.0253949 0.167851ZM0.0501405 0.0804265C0.0595156 0.0681008 0.0692328 0.0744269 0.0780643 0.0986045L0.0823655 0.029971C0.0714803 0.000170539 0.059503 -0.00762648 0.0479478 0.00756551L0.0501405 0.0804265ZM0.0780643 0.0986045C0.0868954 0.122782 0.0944434 0.163726 0.0997538 0.216258L0.109099 0.174985C0.102553 0.110237 0.0932502 0.0597714 0.0823655 0.029971L0.0780643 0.0986045ZM0.0997538 0.216258C0.105064 0.268789 0.107899 0.33055 0.107899 0.393729H0.119138C0.119138 0.315857 0.115645 0.239733 0.109099 0.174985L0.0997538 0.216258ZM0.107899 0.393705C0.107896 0.425545 0.107182 0.45721 0.105781 0.487674L0.116535 0.509277C0.118257 0.471824 0.119134 0.432897 0.119138 0.393753L0.107899 0.393705ZM0.107184 0.47221L0.071443 0.708448L0.0793906 0.760978L0.115132 0.524741L0.107184 0.47221Z" fill="#FD650B"/>
<path d="M0.0877609 0.501199C0.0893187 0.483457 0.088406 0.460726 0.0857216 0.450428C0.0830372 0.440129 0.0795983 0.446164 0.0780402 0.463906L0.0877609 0.501199ZM0.0410047 0.463906C0.0394466 0.446164 0.0360075 0.440129 0.0333232 0.450428C0.030639 0.460726 0.029726 0.483457 0.0312841 0.501199L0.0410047 0.463906ZM0.0780402 0.463906C0.0761576 0.485342 0.0734563 0.503135 0.0702065 0.515504L0.075815 0.579882C0.0807707 0.561021 0.0848899 0.533889 0.0877609 0.501199L0.0780402 0.463906ZM0.0702065 0.515504C0.0669568 0.527872 0.0632725 0.534382 0.0595224 0.534382V0.60867C0.065241 0.60867 0.0708593 0.598743 0.075815 0.579882L0.0702065 0.515504ZM0.0595224 0.534382C0.0557724 0.534382 0.0520881 0.527872 0.0488383 0.515504L0.0432299 0.579882C0.0481856 0.598743 0.0538039 0.60867 0.0595224 0.60867V0.534382ZM0.0488383 0.515504C0.0455885 0.503135 0.0428872 0.485342 0.0410047 0.463906L0.0312841 0.501199C0.0341548 0.533889 0.0382741 0.561021 0.0432299 0.579882L0.0488383 0.515504Z" fill="#FD650B"/>
<path d="M0.07414 0.327475C0.0778645 0.327475 0.0808837 0.307519 0.0808837 0.282902C0.0808837 0.258285 0.0778645 0.238329 0.07414 0.238329C0.0704156 0.238329 0.0673963 0.258285 0.0673963 0.282902C0.0673963 0.307519 0.0704156 0.327475 0.07414 0.327475Z" fill="#FD650B"/>
<path d="M0.0336045 0.327475C0.037329 0.327475 0.0403482 0.307519 0.0403482 0.282902C0.0403482 0.258285 0.037329 0.238329 0.0336045 0.238329C0.0298801 0.238329 0.0268609 0.258285 0.0268609 0.282902C0.0268609 0.307519 0.0298801 0.327475 0.0336045 0.327475Z" fill="#FD650B"/>
<defs>
<filter id="filter0_d_0_262" x="29.7308" y="58.1933" width="60.2692" height="61.7116" filterUnits="userSpaceOnUse" color-interpolation-filters="sRGB">
<feFlood flood-opacity="0" result="BackgroundImageFix"/>
<feColorMatrix in="SourceAlpha" type="matrix" values="0 0 0 0 0 0 0 0 0 0 0 0 0 0 0 0 0 0 127 0" result="hardAlpha"/>
<feOffset dy="30"/>
<feGaussianBlur stdDeviation="15"/>
<feComposite in2="hardAlpha" operator="out"/>
<feColorMatrix type="matrix" values="0 0 0 0 0.571389 0 0 0 0 0.682951 0 0 0 0 0.733333 0 0 0 0.2 0"/>
<feBlend mode="normal" in2="BackgroundImageFix" result="effect1_dropShadow_0_262"/>
<feBlend mode="normal" in="SourceGraphic" in2="effect1_dropShadow_0_262" result="shape"/>
</filter>
</defs>
</svg>
