<svg width="20" height="24" viewBox="0 0 20 24" fill="none" xmlns="http://www.w3.org/2000/svg">
<path d="M17.9901 22.2865H12.4289C13.3645 21.4917 14.2469 20.6418 15.0709 19.7417C18.1575 16.359 19.7891 12.7929 19.7891 9.42891C19.7891 6.9282 18.7466 4.52992 16.891 2.76166C15.0355 0.9934 12.5187 0 9.89453 0C7.27034 0 4.75362 0.9934 2.89804 2.76166C1.04246 4.52992 0 6.9282 0 9.42891C0 12.7929 1.63155 16.359 4.71822 19.7417C5.54216 20.6418 6.42456 21.4917 7.36021 22.2865H1.79901C1.56045 22.2865 1.33165 22.3768 1.16296 22.5376C0.994272 22.6983 0.899503 22.9164 0.899503 23.1437C0.899503 23.371 0.994272 23.5891 1.16296 23.7498C1.33165 23.9106 1.56045 24.0009 1.79901 24.0009H17.9901C18.2286 24.0009 18.4574 23.9106 18.6261 23.7498C18.7948 23.5891 18.8896 23.371 18.8896 23.1437C18.8896 22.9164 18.7948 22.6983 18.6261 22.5376C18.4574 22.3768 18.2286 22.2865 17.9901 22.2865ZM9.89456 6.00022C10.6062 6.00022 11.3018 6.20131 11.8935 6.57805C12.4852 6.95481 12.9464 7.49029 13.2187 8.11681C13.491 8.74332 13.5622 9.43272 13.4235 10.0978C13.2846 10.7629 12.9419 11.3738 12.4387 11.8533C11.9356 12.3329 11.2944 12.6594 10.5965 12.7918C9.89855 12.924 9.17511 12.8561 8.51766 12.5966C7.86021 12.3371 7.29828 11.8977 6.90293 11.3338C6.50757 10.7699 6.29655 10.107 6.29655 9.42891C6.29655 8.97864 6.3896 8.53279 6.57043 8.11679C6.75124 7.70081 7.01627 7.32283 7.35038 7.00445C7.68448 6.68607 8.08112 6.43351 8.51766 6.2612C8.95419 6.08889 9.42207 6.00022 9.89456 6.00022Z" fill="#1A1A1A"/>
</svg>
