<svg width="90" height="120" viewBox="0 0 90 120" fill="none" xmlns="http://www.w3.org/2000/svg">
<g filter="url(#filter0_d_0_252)">
<ellipse cx="59.8661" cy="59.0983" rx="0.125645" ry="0.849739" fill="white"/>
</g>
<path d="M0.0815422 0.477294C0.0819344 0.461345 0.0802433 0.446369 0.077765 0.443846C0.0752867 0.441322 0.0729598 0.452205 0.0725677 0.468155L0.0815422 0.477294ZM0.0516985 0.602463C0.0492203 0.604987 0.0475291 0.619962 0.0479213 0.635912C0.0483135 0.651861 0.0506404 0.662745 0.0531186 0.660221L0.0516985 0.602463ZM0.0725677 0.468155C0.071739 0.501858 0.0692734 0.533006 0.0655243 0.557134L0.0719493 0.598483C0.0770555 0.565621 0.0804136 0.523197 0.0815422 0.477294L0.0725677 0.468155ZM0.0655243 0.557134C0.0617752 0.581262 0.0569353 0.59713 0.0516985 0.602463L0.0531186 0.660221C0.0602511 0.652958 0.0668431 0.631345 0.0719493 0.598483L0.0655243 0.557134Z" fill="#FD650B"/>
<path d="M0.0227155 0.213805L0.0264891 0.177286C0.0249833 0.170841 0.0231412 0.168513 0.0213686 0.170813C0.0195959 0.173114 0.018038 0.179854 0.0170379 0.18955L0.0227155 0.213805ZM0.00681466 0.486452H0H0.00681466ZM0.10222 0.486452H0.109035H0.10222ZM0.0651936 0.0438579L0.0700039 0.0127929C0.0684374 0.00274512 0.0662108 -0.00178447 0.0640315 0.000643184C0.0618522 0.00307084 0.0599913 0.0121543 0.0590404 0.0250064L0.0651936 0.0438579ZM0.0454311 0.311023L0.0416575 0.347541C0.0433032 0.354585 0.0453428 0.356684 0.0472476 0.353292C0.0491524 0.349904 0.0507346 0.341357 0.0515841 0.329874L0.0454311 0.311023ZM0.0170379 0.18955C0.00808305 0.276371 0 0.382577 0 0.486452H0.0136293C0.0136293 0.40905 0.0198571 0.320822 0.0283932 0.23806L0.0170379 0.18955ZM0 0.486452C0 0.579506 0.00574377 0.668747 0.0159678 0.734548L0.0256051 0.672525C0.0179371 0.623173 0.0136293 0.556244 0.0136293 0.486452H0ZM0.0159678 0.734548C0.0261917 0.800345 0.0400584 0.837311 0.0545173 0.837311V0.749597C0.0436731 0.749597 0.0332731 0.721873 0.0256051 0.672525L0.0159678 0.734548ZM0.0545173 0.837311C0.0689762 0.837311 0.0828427 0.800345 0.093067 0.734548L0.0834297 0.672525C0.0757613 0.721873 0.0653613 0.749597 0.0545173 0.749597V0.837311ZM0.093067 0.734548C0.103291 0.668747 0.109035 0.579506 0.109035 0.486452H0.0954053C0.0954053 0.556244 0.0910975 0.623173 0.0834297 0.672525L0.093067 0.734548ZM0.109035 0.486452C0.109035 0.27633 0.0864745 0.118429 0.0700039 0.0127929L0.0603834 0.074923C0.0770775 0.181995 0.0954053 0.316477 0.0954053 0.486452H0.109035ZM0.0590404 0.0250064L0.0392781 0.292171L0.0515841 0.329874L0.0713468 0.0627095L0.0590404 0.0250064ZM0.0492046 0.274503L0.0264891 0.177286L0.018942 0.250325L0.0416575 0.347541L0.0492046 0.274503Z" fill="#FD650B"/>
<defs>
<filter id="filter0_d_0_252" x="29.7321" y="58.2485" width="60.2679" height="61.7163" filterUnits="userSpaceOnUse" color-interpolation-filters="sRGB">
<feFlood flood-opacity="0" result="BackgroundImageFix"/>
<feColorMatrix in="SourceAlpha" type="matrix" values="0 0 0 0 0 0 0 0 0 0 0 0 0 0 0 0 0 0 127 0" result="hardAlpha"/>
<feOffset dy="30"/>
<feGaussianBlur stdDeviation="15"/>
<feComposite in2="hardAlpha" operator="out"/>
<feColorMatrix type="matrix" values="0 0 0 0 0.571389 0 0 0 0 0.682951 0 0 0 0 0.733333 0 0 0 0.2 0"/>
<feBlend mode="normal" in2="BackgroundImageFix" result="effect1_dropShadow_0_252"/>
<feBlend mode="normal" in="SourceGraphic" in2="effect1_dropShadow_0_252" result="shape"/>
</filter>
</defs>
</svg>
