<svg width="32" height="32" viewBox="0 0 32 32" fill="none" xmlns="http://www.w3.org/2000/svg">
<path d="M15.9974 2.66602C13.3604 2.66602 10.7825 3.448 8.5898 4.91309C6.39714 6.37818 4.68817 8.46056 3.67901 10.8969C2.66984 13.3332 2.4058 16.0141 2.92026 18.6005C3.43473 21.187 4.70461 23.5627 6.56931 25.4274C8.43401 27.2921 10.8098 28.562 13.3962 29.0765C15.9826 29.5909 18.6635 29.3269 21.0999 28.3177C23.5362 27.3086 25.6186 25.5996 27.0837 23.4069C28.5488 21.2143 29.3308 18.6364 29.3308 15.9993C29.3308 14.2484 28.9859 12.5146 28.3158 10.8969C27.6458 9.27923 26.6636 7.80938 25.4255 6.57126C24.1874 5.33315 22.7176 4.35102 21.0999 3.68096C19.4822 3.01089 17.7484 2.66602 15.9974 2.66602ZM15.9974 26.666C13.8878 26.666 11.8254 26.0404 10.0713 24.8683C8.31719 23.6963 6.95002 22.0304 6.14268 20.0813C5.33535 18.1322 5.12411 15.9875 5.53569 13.9184C5.94727 11.8493 6.96317 9.94864 8.45493 8.45688C9.94669 6.96512 11.8473 5.94922 13.9165 5.53764C15.9856 5.12607 18.1303 5.3373 20.0794 6.14464C22.0285 6.95197 23.6944 8.31915 24.8664 10.0733C26.0385 11.8274 26.6641 13.8897 26.6641 15.9993C26.6641 18.8283 25.5403 21.5414 23.5399 23.5418C21.5395 25.5422 18.8264 26.666 15.9974 26.666Z" fill="#0BFD4F"/>
<path d="M15.9974 14.6667C13.3307 14.6667 13.3307 13.8267 13.3307 13.3333C13.3307 12.84 14.2641 12 15.9974 12C17.7307 12 17.8507 12.8533 17.8641 13.3333H20.5307C20.5127 12.425 20.186 11.5499 19.6044 10.8519C19.0228 10.154 18.2209 9.67486 17.3307 9.49333V8H14.6641V9.45333C11.9974 9.89333 10.6641 11.6133 10.6641 13.3333C10.6641 14.8267 11.3574 17.3333 15.9974 17.3333C18.6641 17.3333 18.6641 18.24 18.6641 18.6667C18.6641 19.0933 17.8374 20 15.9974 20C13.5441 20 13.3307 18.8533 13.3307 18.6667H10.6641C10.6641 19.8933 11.5441 22.0667 14.6641 22.56V24H17.3307V22.56C19.9974 22.1067 21.3308 20.3867 21.3308 18.6667C21.3308 17.1733 20.6374 14.6667 15.9974 14.6667Z" fill="#0BFD4F"/>
</svg>
