<svg width="32" height="32" viewBox="0 0 32 32" fill="none" xmlns="http://www.w3.org/2000/svg">
<path d="M15.9974 22.666L17.3307 19.9993V13.1433C19.6254 12.5473 21.3308 10.4767 21.3308 7.99935C21.3308 5.05802 18.9387 2.66602 15.9974 2.66602C13.0561 2.66602 10.6641 5.05802 10.6641 7.99935C10.6641 10.4767 12.3694 12.5473 14.6641 13.1433V19.9993L15.9974 22.666Z" fill="#FD650B"/>
<path d="M21.6868 14.0834L20.9761 16.654C24.4308 17.6087 26.6641 19.4447 26.6641 21.3327C26.6641 23.8554 22.2841 26.666 15.9974 26.666C9.71073 26.666 5.33073 23.8554 5.33073 21.3327C5.33073 19.4447 7.56406 17.6087 11.0201 16.6527L10.3094 14.082C5.59339 15.386 2.66406 18.1634 2.66406 21.3327C2.66406 25.818 8.52139 29.3327 15.9974 29.3327C23.4734 29.3327 29.3308 25.818 29.3308 21.3327C29.3308 18.1634 26.4014 15.386 21.6868 14.0834Z" fill="#FD650B"/>
</svg>
