<svg width="17" height="18" viewBox="0 0 17 18" fill="none" xmlns="http://www.w3.org/2000/svg">
<path d="M14.0402 5.74801C15.6749 5.74801 17 4.46128 17 2.87401C17 1.28673 15.6749 0 14.0402 0C12.4056 0 11.0805 1.28673 11.0805 2.87401C11.0805 4.46128 12.4056 5.74801 14.0402 5.74801Z" fill="#636363"/>
<path d="M2.95978 5.74801C4.59442 5.74801 5.91955 4.46128 5.91955 2.87401C5.91955 1.28673 4.59442 0 2.95978 0C1.32513 0 0 1.28673 0 2.87401C0 4.46128 1.32513 5.74801 2.95978 5.74801Z" fill="#636363"/>
<path d="M14.0402 17.6897C15.6749 17.6897 17 16.4029 17 14.8157C17 13.2284 15.6749 11.9417 14.0402 11.9417C12.4056 11.9417 11.0805 13.2284 11.0805 14.8157C11.0805 16.4029 12.4056 17.6897 14.0402 17.6897Z" fill="#636363"/>
<path d="M2.95978 17.6897C4.59442 17.6897 5.91955 16.4029 5.91955 14.8157C5.91955 13.2284 4.59442 11.9417 2.95978 11.9417C1.32513 11.9417 0 13.2284 0 14.8157C0 16.4029 1.32513 17.6897 2.95978 17.6897Z" fill="#636363"/>
</svg>
