<svg width="24" height="24" viewBox="0 0 24 24" fill="none" xmlns="http://www.w3.org/2000/svg">
<path d="M4.75 12C4.19771 12 3.75 12.4477 3.75 13C3.75 13.5523 4.19771 14 4.75 14V12ZM21.25 14C21.8023 14 22.25 13.5523 22.25 13C22.25 12.4477 21.8023 12 21.25 12V14ZM4.75 14H21.25V12H4.75V14Z" fill="#C5C5C5"/>
<path d="M14.7071 5.29289C14.3166 4.90237 13.6834 4.90237 13.2929 5.29289C12.9024 5.68342 12.9024 6.31658 13.2929 6.70711L14.7071 5.29289ZM20.75 12.75L21.4571 13.4571C21.8476 13.0666 21.8476 12.4334 21.4571 12.0429L20.75 12.75ZM13.2929 18.7929C12.9024 19.1834 12.9024 19.8166 13.2929 20.2071C13.6834 20.5976 14.3166 20.5976 14.7071 20.2071L13.2929 18.7929ZM13.2929 6.70711L20.0429 13.4571L21.4571 12.0429L14.7071 5.29289L13.2929 6.70711ZM20.0429 12.0429L13.2929 18.7929L14.7071 20.2071L21.4571 13.4571L20.0429 12.0429Z" fill="#C5C5C5"/>
</svg>
