<svg width="63" height="27" viewBox="0 0 63 27" fill="none" xmlns="http://www.w3.org/2000/svg">
<path d="M0.564453 21.0005H13.2485V17.4445H5.10045V0.980469H0.564453V21.0005Z" fill="black"/>
<path d="M21.5874 18.2275C19.2914 18.2275 18.0034 16.5475 18.0034 13.7475V13.5235C18.0034 10.7235 19.3474 9.09953 21.5874 9.09953C23.8554 9.09953 25.1714 10.7795 25.1714 13.5795V13.7755C25.1714 16.5475 23.8554 18.2275 21.5874 18.2275ZM21.5594 21.3075C25.9554 21.3075 29.2874 18.3675 29.2874 13.7475V13.5235C29.2874 8.95953 25.9834 6.01953 21.5874 6.01953C17.1914 6.01953 13.8594 9.01553 13.8594 13.6075V13.8315C13.8594 18.3955 17.1914 21.3075 21.5594 21.3075Z" fill="black"/>
<path d="M37.6645 26.4035C42.4805 26.4035 45.3645 24.1915 45.3925 19.8515V6.35553H41.3605V8.53953C40.5205 7.05553 39.0925 6.01953 36.7125 6.01953C33.0725 6.01953 30.2725 8.95953 30.2725 13.1595V13.3555C30.2725 17.6955 33.1005 20.3555 36.6565 20.3555C38.8125 20.3555 40.5485 19.0675 41.3605 17.6395V19.8515C41.3605 22.1475 40.1285 23.4355 37.6645 23.4355C35.5925 23.4355 34.6685 22.5955 34.4165 21.3075H30.3845C30.7765 24.3315 32.9325 26.4035 37.6645 26.4035ZM37.8605 17.3035C35.8445 17.3035 34.4165 15.7915 34.4165 13.3555V13.1315C34.4165 10.7235 35.6765 9.09953 37.9445 9.09953C40.1565 9.09953 41.4725 10.6115 41.4725 13.1035V13.2995C41.4725 15.7915 39.9885 17.3035 37.8605 17.3035Z" fill="black"/>
<path d="M54.9614 18.2275C52.6654 18.2275 51.3774 16.5475 51.3774 13.7475V13.5235C51.3774 10.7235 52.7214 9.09953 54.9614 9.09953C57.2294 9.09953 58.5454 10.7795 58.5454 13.5795V13.7755C58.5454 16.5475 57.2294 18.2275 54.9614 18.2275ZM54.9334 21.3075C59.3294 21.3075 62.6614 18.3675 62.6614 13.7475V13.5235C62.6614 8.95953 59.3574 6.01953 54.9614 6.01953C50.5654 6.01953 47.2334 9.01553 47.2334 13.6075V13.8315C47.2334 18.3955 50.5654 21.3075 54.9334 21.3075Z" fill="black"/>
</svg>
