<svg width="24" height="24" viewBox="0 0 24 24" fill="none" xmlns="http://www.w3.org/2000/svg">
<path fill-rule="evenodd" clip-rule="evenodd" d="M16.0007 3.24162H8.00068C5.23923 3.24162 3.00064 5.48022 3.00064 8.24166V16.2417C3.00064 19.0032 5.23923 21.2418 8.00068 21.2418H16.0007C18.7622 21.2418 21.0008 19.0032 21.0008 16.2417V8.24166C21.0008 5.48022 18.7622 3.24162 16.0007 3.24162ZM19.2508 16.2417C19.2453 18.0343 17.7934 19.4863 16.0007 19.4918H8.00068C6.20801 19.4863 4.75614 18.0343 4.75065 16.2417V8.24166C4.75614 6.449 6.20801 4.99713 8.00068 4.99164H16.0007C17.7934 4.99713 19.2453 6.449 19.2508 8.24166V16.2417ZM16.7508 8.49167C17.3031 8.49167 17.7508 8.04394 17.7508 7.49166C17.7508 6.93937 17.3031 6.49165 16.7508 6.49165C16.1984 6.49165 15.7507 6.93937 15.7507 7.49166C15.7507 8.04394 16.1984 8.49167 16.7508 8.49167ZM12.0007 7.74166C9.51541 7.74166 7.50067 9.7564 7.50067 12.2417C7.50067 14.727 9.51541 16.7417 12.0007 16.7417C14.486 16.7417 16.5007 14.727 16.5007 12.2417C16.5034 11.0474 16.0301 9.90125 15.1856 9.05675C14.3411 8.21225 13.195 7.739 12.0007 7.74166ZM9.25069 12.2417C9.25069 13.7605 10.4819 14.9917 12.0007 14.9917C13.5195 14.9917 14.7507 13.7605 14.7507 12.2417C14.7507 10.7229 13.5195 9.49167 12.0007 9.49167C10.4819 9.49167 9.25069 10.7229 9.25069 12.2417Z" fill="black"/>
</svg>
