<svg width="47" height="47" viewBox="0 0 47 47" fill="none" xmlns="http://www.w3.org/2000/svg">
<path fill-rule="evenodd" clip-rule="evenodd" d="M40.5961 13.9434L40.3219 13.4539C39.9683 12.8618 39.4695 12.3698 38.8728 12.0243L25.7324 4.44554C25.1374 4.10038 24.462 3.91801 23.7741 3.91679H23.2061C22.5182 3.91801 21.8428 4.10038 21.2478 4.44554L8.10743 12.0439C7.514 12.3871 7.02107 12.88 6.67785 13.4734L6.40369 13.963C6.05853 14.558 5.87615 15.2335 5.87494 15.9213V31.0984C5.87615 31.7864 6.05853 32.4618 6.40369 33.0567L6.67785 33.5463C7.02994 34.1328 7.52089 34.6238 8.10743 34.9759L21.2674 42.5546C21.8594 42.9069 22.5368 43.0898 23.2257 43.0834H23.7741C24.462 43.0822 25.1374 42.8999 25.7324 42.5546L38.8728 34.9563C39.472 34.6208 39.9669 34.126 40.3023 33.5267L40.5961 33.0371C40.937 32.4404 41.1192 31.7662 41.1248 31.0788V15.9018C41.1237 15.2139 40.9414 14.5385 40.5961 13.9434ZM23.2061 7.83345H23.7741L35.2499 14.4526L23.4999 21.2284L11.7499 14.4526L23.2061 7.83345ZM25.4582 38.1875L36.9144 31.5684L37.2082 31.0788V17.8405L25.4582 24.6359V38.1875Z" fill="black"/>
</svg>
