<svg width="19" height="19" viewBox="0 0 19 19" fill="none" xmlns="http://www.w3.org/2000/svg">
<path d="M18.7471 1.47419L15.9034 4.31756L17.8836 6.29743C18.0043 6.4182 18.0865 6.57207 18.1199 6.73956C18.1532 6.90707 18.1361 7.08069 18.0706 7.23846C18.0053 7.39625 17.8946 7.5311 17.7526 7.62599C17.6105 7.72088 17.4436 7.77154 17.2729 7.77156H12.091C11.862 7.77155 11.6423 7.68057 11.4803 7.51863C11.3183 7.3567 11.2273 7.13707 11.2273 6.90805V1.72706C11.2274 1.55628 11.278 1.38934 11.3729 1.24734C11.4679 1.10535 11.6027 0.994673 11.7605 0.929316C11.9183 0.863959 12.092 0.846851 12.2595 0.880157C12.4271 0.913462 12.581 0.995686 12.7017 1.11643L14.6819 3.0963L17.5257 0.25293C17.606 0.172741 17.7012 0.109132 17.8059 0.065734C17.9107 0.0223363 18.023 0 18.1364 0C18.2498 0 18.3621 0.0223363 18.467 0.065734C18.5718 0.109132 18.667 0.172741 18.7471 0.25293C18.8274 0.333118 18.891 0.428316 18.9344 0.533087C18.9779 0.63786 19.0001 0.750152 19.0001 0.863557C19.0001 0.976961 18.9779 1.08925 18.9344 1.19403C18.891 1.2988 18.8274 1.394 18.7471 1.47419ZM6.90916 11.2256H1.72733C1.55653 11.2256 1.38956 11.2762 1.24754 11.3711C1.10552 11.466 0.994832 11.6009 0.929465 11.7586C0.864097 11.9164 0.846987 12.0901 0.880298 12.2575C0.913608 12.4251 0.995845 12.5789 1.11661 12.6997L3.09679 14.6795L0.25297 17.5229C0.172769 17.6032 0.109149 17.6983 0.0657445 17.8031C0.0223398 17.9078 0 18.0201 0 18.1335C0 18.2469 0.0223398 18.3592 0.0657445 18.4641C0.109149 18.5688 0.172769 18.664 0.25297 18.7441C0.414944 18.9061 0.634628 18.997 0.863694 18.997C0.977117 18.997 1.08943 18.9748 1.19422 18.9314C1.29901 18.888 1.39422 18.8244 1.47442 18.7441L4.31825 15.9008L6.29843 17.8807C6.41923 18.0014 6.57312 18.0836 6.74064 18.117C6.90818 18.1503 7.08182 18.1332 7.23962 18.0678C7.39743 18.0024 7.5323 17.8918 7.62721 17.7497C7.72212 17.6077 7.77278 17.4408 7.7728 17.2701V12.0891C7.77279 11.8601 7.68179 11.6404 7.51983 11.4784C7.35787 11.3165 7.13821 11.2256 6.90916 11.2256Z" fill="#636363"/>
</svg>
