<svg width="1417" height="59" viewBox="0 0 1417 59" fill="none" xmlns="http://www.w3.org/2000/svg">
<g filter="url(#filter0_d_0_62)">
<path d="M96.9922 35.5843H100.986V28.7372H102.723L106.965 35.5843H111.232L106.543 28.0426C108.627 27.4224 110.19 26.0082 110.19 23.329V23.2297C110.19 19.5581 107.536 17.8463 103.343 17.8463H96.9922V35.5843ZM100.986 26.0082V20.9226H103.244C105.179 20.9226 106.271 21.5428 106.271 23.3538V23.453C106.271 25.1648 105.253 26.0082 103.244 26.0082H100.986Z" fill="black"/>
<path d="M118.088 35.8547C121.635 35.8547 123.868 34.2918 124.29 31.4884H120.891C120.668 32.58 119.849 33.2995 118.187 33.2995C116.227 33.2995 115.061 32.0591 114.962 29.9008H124.315V28.9084C124.315 24.2692 121.338 22.3094 117.988 22.3094C114.218 22.3094 111.315 24.9639 111.315 29.0573V29.2557C111.315 33.3987 114.168 35.8547 118.088 35.8547ZM115.011 27.6928C115.284 25.8569 116.376 24.7902 117.988 24.7902C119.7 24.7902 120.693 25.7329 120.817 27.6928H115.011Z" fill="black"/>
<path d="M126.024 35.5815H129.597V16.7272H126.024V35.5815Z" fill="black"/>
<path d="M136.45 35.8559C138.584 35.8559 139.899 34.8635 140.568 33.5487V35.583H144.141V22.6082H140.568V30.2244C140.568 32.1347 139.378 33.0774 137.865 33.0774C136.327 33.0774 135.607 32.2338 135.607 30.4725V22.6082H132.035V30.9686C132.035 34.3674 133.92 35.8559 136.45 35.8559Z" fill="black"/>
<path d="M146.58 35.5818H150.177V27.9161C150.177 26.1547 151.293 25.2615 152.683 25.2615C153.948 25.2615 154.717 26.0058 154.717 27.668V35.5818H158.29V27.9161C158.29 26.1547 159.406 25.2615 160.795 25.2615C162.085 25.2615 162.83 26.0058 162.83 27.668V35.5818H166.402V27.2711C166.402 23.8227 164.541 22.3094 162.135 22.3094C160.497 22.3094 158.811 23.004 157.769 24.5669C157.148 23.0288 155.858 22.3094 154.147 22.3094C152.211 22.3094 150.822 23.3761 150.177 24.5917V22.6071H146.58V35.5818Z" fill="black"/>
<path d="M174.709 35.8547C178.257 35.8547 180.49 34.2918 180.911 31.4884H177.512C177.289 32.58 176.47 33.2995 174.808 33.2995C172.848 33.2995 171.682 32.0591 171.583 29.9008H180.936V28.9084C180.936 24.2692 177.958 22.3094 174.609 22.3094C170.839 22.3094 167.936 24.9639 167.936 29.0573V29.2557C167.936 33.3987 170.789 35.8547 174.709 35.8547ZM171.633 27.6928C171.906 25.8569 172.998 24.7902 174.609 24.7902C176.321 24.7902 177.314 25.7329 177.438 27.6928H171.633Z" fill="black"/>
<path fill-rule="evenodd" clip-rule="evenodd" d="M83.2461 18.9051L83.0049 18.4744C82.6938 17.9535 82.2551 17.5207 81.7301 17.2168L70.17 10.5495C69.6466 10.2459 69.0524 10.0854 68.4472 10.0843H67.9476C67.3424 10.0854 66.7483 10.2459 66.2248 10.5495L54.6648 17.234C54.1428 17.5359 53.7091 17.9696 53.4072 18.4916L53.166 18.9224C52.8624 19.4457 52.7019 20.04 52.7008 20.6451V33.9968C52.7019 34.602 52.8624 35.1962 53.166 35.7196L53.4072 36.1504C53.7169 36.6664 54.1488 37.0982 54.6648 37.408L66.242 44.0752C66.7629 44.3851 67.3588 44.5461 67.9648 44.5403H68.4472C69.0524 44.5393 69.6466 44.3788 70.17 44.0752L81.7301 37.3908C82.2573 37.0956 82.6926 36.6604 82.9877 36.1331L83.2461 35.7024C83.5461 35.1774 83.7063 34.5842 83.7112 33.9796V20.6278C83.7102 20.0228 83.5498 19.4285 83.2461 18.9051ZM67.9476 13.5299H68.4472L78.5429 19.353L68.206 25.3138L57.8693 19.353L67.9476 13.5299ZM69.9288 40.2335L80.0072 34.4104L80.2656 33.9797V22.3336L69.9288 28.3117V40.2335Z" fill="black"/>
</g>
<g filter="url(#filter1_d_0_62)">
<path d="M334.173 23.966C334.173 21.9998 332.267 19.914 328.961 19.914C325.248 19.914 321.175 22.6325 320.544 28.0649C319.908 33.557 323.327 35.9839 326.763 35.9839C330.197 35.9839 332.006 34.6456 333.842 32.8517C332.256 30.8549 330.212 31.7841 329.825 31.9787C329.397 32.1931 328.836 32.4896 327.696 32.4896C326.365 32.4896 325.015 31.8873 325.015 29.416C333.524 28.6004 334.173 25.9334 334.173 23.966ZM329.956 24.2953C329.901 24.9011 329.653 25.9498 325.346 26.5264C326.254 23.3016 327.986 23.0626 328.787 23.0626C329.537 23.0626 330.015 23.6438 329.956 24.2953ZM315.543 24.8191C315.543 24.8191 313.713 30.5585 313.571 31.0401C313.522 30.5585 312.182 20.2492 312.182 20.2492C309.065 20.2492 307.398 22.4638 306.519 24.8167C306.519 24.8167 304.293 30.5725 304.112 31.0542C304.102 30.603 303.77 24.8765 303.77 24.8765C303.582 21.9986 300.954 20.2561 298.825 20.2561L301.386 35.8749C304.656 35.8643 306.407 33.6531 307.33 31.3049C307.33 31.3049 309.288 26.2264 309.369 25.9956C309.389 26.2159 310.778 35.8749 310.778 35.8749C314.05 35.8749 315.816 33.8043 316.766 31.5405L321.359 20.2561C318.125 20.2561 316.422 22.465 315.543 24.8191ZM346.193 19.8929C344.182 19.8929 342.631 20.9862 341.326 22.6021L341.328 22.5903L342.488 13.2055C339.81 13.2055 337.621 15.5374 337.205 18.9965L335.167 35.753C336.713 35.753 338.35 35.3042 339.233 34.1688C340.024 35.1846 341.199 35.9944 342.939 35.9944C347.457 35.9944 350.562 30.7436 350.562 25.8139C350.562 21.3155 348.373 19.8929 346.193 19.8929ZM345.779 27.9431C345.31 30.6991 343.778 32.5575 342.295 32.5575C340.8 32.5575 340.168 31.8967 340.168 31.8967C340.447 29.4875 340.632 28.0099 341.177 26.7373C341.721 25.4648 343.006 23.4341 344.351 23.4341C345.659 23.4341 346.247 25.1882 345.779 27.9431ZM361.886 20.2574H358.723L358.739 20.0921C358.954 18.0274 359.449 16.9435 361.049 16.7771C362.143 16.6647 362.637 16.0963 362.752 15.4823C362.842 15.0007 363.148 13.2981 363.148 13.2981C356.804 13.2618 354.815 16.0002 354.308 20.1624L354.296 20.2561L354.234 20.2585C353.204 20.2585 352.073 21.4245 351.875 22.9055L351.806 23.4504H353.916L352.145 38.1083L351.608 40.7424L351.826 40.7495C354.787 40.637 356.693 38.3016 357.113 34.9011L358.496 23.4504H359.487C360.458 23.4504 361.598 22.4779 361.809 20.8526L361.886 20.2574ZM378.298 19.9855C374.654 19.9855 371.219 22.6677 370.163 26.8873C369.109 31.1057 370.712 36.0869 376.068 36.0869C381.426 36.0869 384.504 30.8947 384.504 26.5838C384.504 22.2704 381.589 19.9855 378.298 19.9855ZM379.775 27.8177C379.587 29.7312 378.743 32.622 376.437 32.622C374.122 32.622 374.451 29.2297 374.675 27.6197C374.915 25.8936 375.885 23.4504 377.949 23.4504C379.813 23.4504 379.989 25.6569 379.775 27.8177ZM402.5 24.8191C402.5 24.8191 400.67 30.5585 400.529 31.0401C400.479 30.5585 399.14 20.2492 399.14 20.2492C396.023 20.2492 394.356 22.4638 393.476 24.8167C393.476 24.8167 391.251 30.5725 391.07 31.0542C391.06 30.603 390.728 24.8765 390.728 24.8765C390.539 21.9986 387.911 20.2561 385.783 20.2561L388.342 35.8749C391.613 35.8643 393.365 33.6531 394.288 31.3049C394.288 31.3049 396.246 26.2264 396.327 25.9956C396.347 26.2159 397.734 35.8749 397.734 35.8749C401.007 35.8749 402.773 33.8043 403.723 31.5405L408.317 20.2561C405.082 20.2561 403.379 22.465 402.5 24.8191ZM364.862 13.2981L362.207 34.7136L362.2 34.7101L361.661 37.3583L361.878 37.3653C364.737 37.3302 366.765 34.8215 367.147 31.6576L368.681 19.3656C369.146 15.6218 366.914 13.2981 364.862 13.2981Z" fill="black"/>
</g>
<g filter="url(#filter2_d_0_62)">
<path d="M570.992 35.5843H574.986V28.7372H576.723L580.965 35.5843H585.232L580.543 28.0426C582.627 27.4224 584.19 26.0082 584.19 23.329V23.2297C584.19 19.5581 581.536 17.8463 577.343 17.8463H570.992V35.5843ZM574.986 26.0082V20.9226H577.244C579.179 20.9226 580.271 21.5428 580.271 23.3538V23.453C580.271 25.1648 579.253 26.0082 577.244 26.0082H574.986Z" fill="black"/>
<path d="M592.088 35.8547C595.636 35.8547 597.868 34.2918 598.29 31.4884H594.891C594.668 32.58 593.849 33.2995 592.187 33.2995C590.227 33.2995 589.061 32.0591 588.962 29.9008H598.315V28.9084C598.315 24.2692 595.338 22.3094 591.989 22.3094C588.218 22.3094 585.315 24.9639 585.315 29.0573V29.2557C585.315 33.3987 588.168 35.8547 592.088 35.8547ZM589.012 27.6928C589.285 25.8569 590.376 24.7902 591.989 24.7902C593.7 24.7902 594.693 25.7329 594.817 27.6928H589.012Z" fill="black"/>
<path d="M600.024 35.5815H603.597V16.7272H600.024V35.5815Z" fill="black"/>
<path d="M610.451 35.8559C612.584 35.8559 613.899 34.8635 614.569 33.5487V35.583H618.141V22.6082H614.569V30.2244C614.569 32.1347 613.378 33.0774 611.865 33.0774C610.327 33.0774 609.607 32.2338 609.607 30.4725V22.6082H606.035V30.9686C606.035 34.3674 607.92 35.8559 610.451 35.8559Z" fill="black"/>
<path d="M620.58 35.5818H624.178V27.9161C624.178 26.1547 625.294 25.2615 626.683 25.2615C627.948 25.2615 628.717 26.0058 628.717 27.668V35.5818H632.29V27.9161C632.29 26.1547 633.406 25.2615 634.795 25.2615C636.085 25.2615 636.83 26.0058 636.83 27.668V35.5818H640.402V27.2711C640.402 23.8227 638.542 22.3094 636.135 22.3094C634.498 22.3094 632.811 23.004 631.769 24.5669C631.149 23.0288 629.859 22.3094 628.147 22.3094C626.211 22.3094 624.822 23.3761 624.178 24.5917V22.6071H620.58V35.5818Z" fill="black"/>
<path d="M648.709 35.8547C652.257 35.8547 654.49 34.2918 654.911 31.4884H651.512C651.289 32.58 650.47 33.2995 648.808 33.2995C646.848 33.2995 645.682 32.0591 645.583 29.9008H654.936V28.9084C654.936 24.2692 651.958 22.3094 648.609 22.3094C644.839 22.3094 641.936 24.9639 641.936 29.0573V29.2557C641.936 33.3987 644.789 35.8547 648.709 35.8547ZM645.633 27.6928C645.906 25.8569 646.998 24.7902 648.609 24.7902C650.321 24.7902 651.314 25.7329 651.438 27.6928H645.633Z" fill="black"/>
<path fill-rule="evenodd" clip-rule="evenodd" d="M557.246 18.9051L557.005 18.4744C556.694 17.9535 556.255 17.5207 555.73 17.2168L544.17 10.5495C543.647 10.2459 543.053 10.0854 542.447 10.0843H541.948C541.343 10.0854 540.749 10.2459 540.225 10.5495L528.665 17.234C528.143 17.5359 527.709 17.9696 527.407 18.4916L527.166 18.9224C526.863 19.4457 526.702 20.04 526.701 20.6451V33.9968C526.702 34.602 526.863 35.1962 527.166 35.7196L527.407 36.1504C527.717 36.6664 528.149 37.0982 528.665 37.408L540.242 44.0752C540.763 44.3851 541.359 44.5461 541.965 44.5403H542.447C543.053 44.5393 543.647 44.3788 544.17 44.0752L555.73 37.3908C556.257 37.0956 556.693 36.6604 556.988 36.1331L557.246 35.7024C557.546 35.1774 557.706 34.5842 557.711 33.9796V20.6278C557.71 20.0228 557.55 19.4285 557.246 18.9051ZM541.948 13.5299H542.447L552.543 19.353L542.206 25.3138L531.869 19.353L541.948 13.5299ZM543.929 40.2335L554.007 34.4104L554.266 33.9797V22.3336L543.929 28.3117V40.2335Z" fill="black"/>
</g>
<g filter="url(#filter3_d_0_62)">
<path d="M808.174 23.966C808.174 21.9998 806.267 19.914 802.961 19.914C799.248 19.914 795.175 22.6325 794.545 28.0649C793.908 33.557 797.328 35.9839 800.763 35.9839C804.198 35.9839 806.006 34.6456 807.842 32.8517C806.256 30.8549 804.212 31.7841 803.825 31.9787C803.397 32.1931 802.836 32.4896 801.696 32.4896C800.365 32.4896 799.015 31.8873 799.015 29.416C807.524 28.6004 808.174 25.9334 808.174 23.966ZM803.956 24.2953C803.901 24.9011 803.653 25.9498 799.347 26.5264C800.255 23.3016 801.987 23.0626 802.787 23.0626C803.537 23.0626 804.015 23.6438 803.956 24.2953ZM789.543 24.8191C789.543 24.8191 787.713 30.5585 787.571 31.0401C787.522 30.5585 786.183 20.2492 786.183 20.2492C783.066 20.2492 781.398 22.4638 780.519 24.8167C780.519 24.8167 778.293 30.5725 778.113 31.0542C778.102 30.603 777.77 24.8765 777.77 24.8765C777.582 21.9986 774.955 20.2561 772.826 20.2561L775.386 35.8749C778.656 35.8643 780.407 33.6531 781.33 31.3049C781.33 31.3049 783.288 26.2264 783.369 25.9956C783.389 26.2159 784.778 35.8749 784.778 35.8749C788.051 35.8749 789.816 33.8043 790.767 31.5405L795.359 20.2561C792.125 20.2561 790.422 22.465 789.543 24.8191ZM820.194 19.8929C818.182 19.8929 816.631 20.9862 815.326 22.6021L815.328 22.5903L816.489 13.2055C813.81 13.2055 811.621 15.5374 811.205 18.9965L809.167 35.753C810.713 35.753 812.35 35.3042 813.233 34.1688C814.024 35.1846 815.2 35.9944 816.94 35.9944C821.457 35.9944 824.562 30.7436 824.562 25.8139C824.562 21.3155 822.373 19.8929 820.194 19.8929ZM819.779 27.9431C819.31 30.6991 817.779 32.5575 816.295 32.5575C814.8 32.5575 814.168 31.8967 814.168 31.8967C814.447 29.4875 814.632 28.0099 815.177 26.7373C815.721 25.4648 817.006 23.4341 818.352 23.4341C819.659 23.4341 820.248 25.1882 819.779 27.9431ZM835.886 20.2574H832.724L832.739 20.0921C832.954 18.0274 833.449 16.9435 835.05 16.7771C836.143 16.6647 836.637 16.0963 836.752 15.4823C836.842 15.0007 837.148 13.2981 837.148 13.2981C830.804 13.2618 828.816 16.0002 828.308 20.1624L828.297 20.2561L828.234 20.2585C827.204 20.2585 826.074 21.4245 825.876 22.9055L825.807 23.4504H827.916L826.145 38.1083L825.609 40.7424L825.826 40.7495C828.788 40.637 830.693 38.3016 831.114 34.9011L832.496 23.4504H833.488C834.458 23.4504 835.598 22.4779 835.809 20.8526L835.886 20.2574ZM852.298 19.9855C848.654 19.9855 845.219 22.6677 844.163 26.8873C843.109 31.1057 844.712 36.0869 850.068 36.0869C855.426 36.0869 858.504 30.8947 858.504 26.5838C858.504 22.2704 855.589 19.9855 852.298 19.9855ZM853.776 27.8177C853.587 29.7312 852.743 32.622 850.438 32.622C848.122 32.622 848.451 29.2297 848.675 27.6197C848.916 25.8936 849.885 23.4504 851.949 23.4504C853.813 23.4504 853.989 25.6569 853.776 27.8177ZM876.5 24.8191C876.5 24.8191 874.67 30.5585 874.529 31.0401C874.479 30.5585 873.14 20.2492 873.14 20.2492C870.023 20.2492 868.356 22.4638 867.476 24.8167C867.476 24.8167 865.251 30.5725 865.071 31.0542C865.06 30.603 864.728 24.8765 864.728 24.8765C864.54 21.9986 861.911 20.2561 859.783 20.2561L862.343 35.8749C865.613 35.8643 867.365 33.6531 868.288 31.3049C868.288 31.3049 870.246 26.2264 870.327 25.9956C870.347 26.2159 871.734 35.8749 871.734 35.8749C875.008 35.8749 876.773 33.8043 877.723 31.5405L882.317 20.2561C879.082 20.2561 877.379 22.465 876.5 24.8191ZM838.863 13.2981L836.207 34.7136L836.2 34.7101L835.661 37.3583L835.878 37.3653C838.737 37.3302 840.766 34.8215 841.147 31.6576L842.681 19.3656C843.146 15.6218 840.914 13.2981 838.863 13.2981Z" fill="black"/>
</g>
<g filter="url(#filter4_d_0_62)">
<path d="M1044.99 35.5843H1048.99V28.7372H1050.72L1054.97 35.5843H1059.23L1054.54 28.0426C1056.63 27.4224 1058.19 26.0082 1058.19 23.329V23.2297C1058.19 19.5581 1055.54 17.8463 1051.34 17.8463H1044.99V35.5843ZM1048.99 26.0082V20.9226H1051.24C1053.18 20.9226 1054.27 21.5428 1054.27 23.3538V23.453C1054.27 25.1648 1053.25 26.0082 1051.24 26.0082H1048.99Z" fill="black"/>
<path d="M1066.09 35.8547C1069.64 35.8547 1071.87 34.2918 1072.29 31.4884H1068.89C1068.67 32.58 1067.85 33.2995 1066.19 33.2995C1064.23 33.2995 1063.06 32.0591 1062.96 29.9008H1072.31V28.9084C1072.31 24.2692 1069.34 22.3094 1065.99 22.3094C1062.22 22.3094 1059.31 24.9639 1059.31 29.0573V29.2557C1059.31 33.3987 1062.17 35.8547 1066.09 35.8547ZM1063.01 27.6928C1063.28 25.8569 1064.38 24.7902 1065.99 24.7902C1067.7 24.7902 1068.69 25.7329 1068.82 27.6928H1063.01Z" fill="black"/>
<path d="M1074.02 35.5815H1077.6V16.7272H1074.02V35.5815Z" fill="black"/>
<path d="M1084.45 35.8559C1086.58 35.8559 1087.9 34.8635 1088.57 33.5487V35.583H1092.14V22.6082H1088.57V30.2244C1088.57 32.1347 1087.38 33.0774 1085.87 33.0774C1084.33 33.0774 1083.61 32.2338 1083.61 30.4725V22.6082H1080.03V30.9686C1080.03 34.3674 1081.92 35.8559 1084.45 35.8559Z" fill="black"/>
<path d="M1094.58 35.5818H1098.18V27.9161C1098.18 26.1547 1099.29 25.2615 1100.68 25.2615C1101.95 25.2615 1102.72 26.0058 1102.72 27.668V35.5818H1106.29V27.9161C1106.29 26.1547 1107.41 25.2615 1108.79 25.2615C1110.08 25.2615 1110.83 26.0058 1110.83 27.668V35.5818H1114.4V27.2711C1114.4 23.8227 1112.54 22.3094 1110.13 22.3094C1108.5 22.3094 1106.81 23.004 1105.77 24.5669C1105.15 23.0288 1103.86 22.3094 1102.15 22.3094C1100.21 22.3094 1098.82 23.3761 1098.18 24.5917V22.6071H1094.58V35.5818Z" fill="black"/>
<path d="M1122.71 35.8547C1126.26 35.8547 1128.49 34.2918 1128.91 31.4884H1125.51C1125.29 32.58 1124.47 33.2995 1122.81 33.2995C1120.85 33.2995 1119.68 32.0591 1119.58 29.9008H1128.94V28.9084C1128.94 24.2692 1125.96 22.3094 1122.61 22.3094C1118.84 22.3094 1115.94 24.9639 1115.94 29.0573V29.2557C1115.94 33.3987 1118.79 35.8547 1122.71 35.8547ZM1119.63 27.6928C1119.91 25.8569 1121 24.7902 1122.61 24.7902C1124.32 24.7902 1125.31 25.7329 1125.44 27.6928H1119.63Z" fill="black"/>
<path fill-rule="evenodd" clip-rule="evenodd" d="M1031.25 18.9051L1031.01 18.4744C1030.69 17.9535 1030.26 17.5207 1029.73 17.2168L1018.17 10.5495C1017.65 10.2459 1017.05 10.0854 1016.45 10.0843H1015.95C1015.34 10.0854 1014.75 10.2459 1014.23 10.5495L1002.67 17.234C1002.14 17.5359 1001.71 17.9696 1001.41 18.4916L1001.17 18.9224C1000.86 19.4457 1000.7 20.04 1000.7 20.6451V33.9968C1000.7 34.602 1000.86 35.1962 1001.17 35.7196L1001.41 36.1504C1001.72 36.6664 1002.15 37.0982 1002.67 37.408L1014.24 44.0752C1014.76 44.3851 1015.36 44.5461 1015.97 44.5403H1016.45C1017.05 44.5393 1017.65 44.3788 1018.17 44.0752L1029.73 37.3908C1030.26 37.0956 1030.69 36.6604 1030.99 36.1331L1031.25 35.7024C1031.55 35.1774 1031.71 34.5842 1031.71 33.9796V20.6278C1031.71 20.0228 1031.55 19.4285 1031.25 18.9051ZM1015.95 13.5299H1016.45L1026.54 19.353L1016.21 25.3138L1005.87 19.353L1015.95 13.5299ZM1017.93 40.2335L1028.01 34.4104L1028.27 33.9797V22.3336L1017.93 28.3117V40.2335Z" fill="black"/>
</g>
<g filter="url(#filter5_d_0_62)">
<path d="M1282.17 23.966C1282.17 21.9998 1280.27 19.914 1276.96 19.914C1273.25 19.914 1269.17 22.6325 1268.54 28.0649C1267.91 33.557 1271.33 35.9839 1274.76 35.9839C1278.2 35.9839 1280.01 34.6456 1281.84 32.8517C1280.26 30.8549 1278.21 31.7841 1277.83 31.9787C1277.4 32.1931 1276.84 32.4896 1275.7 32.4896C1274.36 32.4896 1273.01 31.8873 1273.01 29.416C1281.52 28.6004 1282.17 25.9334 1282.17 23.966ZM1277.96 24.2953C1277.9 24.9011 1277.65 25.9498 1273.35 26.5264C1274.25 23.3016 1275.99 23.0626 1276.79 23.0626C1277.54 23.0626 1278.01 23.6438 1277.96 24.2953ZM1263.54 24.8191C1263.54 24.8191 1261.71 30.5585 1261.57 31.0401C1261.52 30.5585 1260.18 20.2492 1260.18 20.2492C1257.07 20.2492 1255.4 22.4638 1254.52 24.8167C1254.52 24.8167 1252.29 30.5725 1252.11 31.0542C1252.1 30.603 1251.77 24.8765 1251.77 24.8765C1251.58 21.9986 1248.95 20.2561 1246.83 20.2561L1249.39 35.8749C1252.66 35.8643 1254.41 33.6531 1255.33 31.3049C1255.33 31.3049 1257.29 26.2264 1257.37 25.9956C1257.39 26.2159 1258.78 35.8749 1258.78 35.8749C1262.05 35.8749 1263.82 33.8043 1264.77 31.5405L1269.36 20.2561C1266.12 20.2561 1264.42 22.465 1263.54 24.8191ZM1294.19 19.8929C1292.18 19.8929 1290.63 20.9862 1289.33 22.6021L1289.33 22.5903L1290.49 13.2055C1287.81 13.2055 1285.62 15.5374 1285.2 18.9965L1283.17 35.753C1284.71 35.753 1286.35 35.3042 1287.23 34.1688C1288.02 35.1846 1289.2 35.9944 1290.94 35.9944C1295.46 35.9944 1298.56 30.7436 1298.56 25.8139C1298.56 21.3155 1296.37 19.8929 1294.19 19.8929ZM1293.78 27.9431C1293.31 30.6991 1291.78 32.5575 1290.3 32.5575C1288.8 32.5575 1288.17 31.8967 1288.17 31.8967C1288.45 29.4875 1288.63 28.0099 1289.18 26.7373C1289.72 25.4648 1291.01 23.4341 1292.35 23.4341C1293.66 23.4341 1294.25 25.1882 1293.78 27.9431ZM1309.89 20.2574H1306.72L1306.74 20.0921C1306.95 18.0274 1307.45 16.9435 1309.05 16.7771C1310.14 16.6647 1310.64 16.0963 1310.75 15.4823C1310.84 15.0007 1311.15 13.2981 1311.15 13.2981C1304.8 13.2618 1302.82 16.0002 1302.31 20.1624L1302.3 20.2561L1302.23 20.2585C1301.2 20.2585 1300.07 21.4245 1299.88 22.9055L1299.81 23.4504H1301.92L1300.15 38.1083L1299.61 40.7424L1299.83 40.7495C1302.79 40.637 1304.69 38.3016 1305.11 34.9011L1306.5 23.4504H1307.49C1308.46 23.4504 1309.6 22.4779 1309.81 20.8526L1309.89 20.2574ZM1326.3 19.9855C1322.65 19.9855 1319.22 22.6677 1318.16 26.8873C1317.11 31.1057 1318.71 36.0869 1324.07 36.0869C1329.43 36.0869 1332.5 30.8947 1332.5 26.5838C1332.5 22.2704 1329.59 19.9855 1326.3 19.9855ZM1327.78 27.8177C1327.59 29.7312 1326.74 32.622 1324.44 32.622C1322.12 32.622 1322.45 29.2297 1322.67 27.6197C1322.92 25.8936 1323.89 23.4504 1325.95 23.4504C1327.81 23.4504 1327.99 25.6569 1327.78 27.8177ZM1350.5 24.8191C1350.5 24.8191 1348.67 30.5585 1348.53 31.0401C1348.48 30.5585 1347.14 20.2492 1347.14 20.2492C1344.02 20.2492 1342.36 22.4638 1341.48 24.8167C1341.48 24.8167 1339.25 30.5725 1339.07 31.0542C1339.06 30.603 1338.73 24.8765 1338.73 24.8765C1338.54 21.9986 1335.91 20.2561 1333.78 20.2561L1336.34 35.8749C1339.61 35.8643 1341.36 33.6531 1342.29 31.3049C1342.29 31.3049 1344.25 26.2264 1344.33 25.9956C1344.35 26.2159 1345.73 35.8749 1345.73 35.8749C1349.01 35.8749 1350.77 33.8043 1351.72 31.5405L1356.32 20.2561C1353.08 20.2561 1351.38 22.465 1350.5 24.8191ZM1312.86 13.2981L1310.21 34.7136L1310.2 34.7101L1309.66 37.3583L1309.88 37.3653C1312.74 37.3302 1314.77 34.8215 1315.15 31.6576L1316.68 19.3656C1317.15 15.6218 1314.91 13.2981 1312.86 13.2981Z" fill="black"/>
</g>
<defs>
<filter id="filter0_d_0_62" x="0" y="-6.00021" width="252.001" height="73.7858" filterUnits="userSpaceOnUse" color-interpolation-filters="sRGB">
<feFlood flood-opacity="0" result="BackgroundImageFix"/>
<feColorMatrix in="SourceAlpha" type="matrix" values="0 0 0 0 0 0 0 0 0 0 0 0 0 0 0 0 0 0 127 0" result="hardAlpha"/>
<feOffset dx="10" dy="4"/>
<feGaussianBlur stdDeviation="5"/>
<feComposite in2="hardAlpha" operator="out"/>
<feColorMatrix type="matrix" values="0 0 0 0 0 0 0 0 0 0 0 0 0 0 0 0 0 0 0.25 0"/>
<feBlend mode="normal" in2="BackgroundImageFix" result="effect1_dropShadow_0_62"/>
<feBlend mode="normal" in="SourceGraphic" in2="effect1_dropShadow_0_62" result="shape"/>
</filter>
<filter id="filter1_d_0_62" x="237" y="-2.15828" width="252.001" height="66.102" filterUnits="userSpaceOnUse" color-interpolation-filters="sRGB">
<feFlood flood-opacity="0" result="BackgroundImageFix"/>
<feColorMatrix in="SourceAlpha" type="matrix" values="0 0 0 0 0 0 0 0 0 0 0 0 0 0 0 0 0 0 127 0" result="hardAlpha"/>
<feOffset dx="10" dy="4"/>
<feGaussianBlur stdDeviation="5"/>
<feComposite in2="hardAlpha" operator="out"/>
<feColorMatrix type="matrix" values="0 0 0 0 0 0 0 0 0 0 0 0 0 0 0 0 0 0 0.25 0"/>
<feBlend mode="normal" in2="BackgroundImageFix" result="effect1_dropShadow_0_62"/>
<feBlend mode="normal" in="SourceGraphic" in2="effect1_dropShadow_0_62" result="shape"/>
</filter>
<filter id="filter2_d_0_62" x="474" y="-6.00021" width="252.001" height="73.7858" filterUnits="userSpaceOnUse" color-interpolation-filters="sRGB">
<feFlood flood-opacity="0" result="BackgroundImageFix"/>
<feColorMatrix in="SourceAlpha" type="matrix" values="0 0 0 0 0 0 0 0 0 0 0 0 0 0 0 0 0 0 127 0" result="hardAlpha"/>
<feOffset dx="10" dy="4"/>
<feGaussianBlur stdDeviation="5"/>
<feComposite in2="hardAlpha" operator="out"/>
<feColorMatrix type="matrix" values="0 0 0 0 0 0 0 0 0 0 0 0 0 0 0 0 0 0 0.25 0"/>
<feBlend mode="normal" in2="BackgroundImageFix" result="effect1_dropShadow_0_62"/>
<feBlend mode="normal" in="SourceGraphic" in2="effect1_dropShadow_0_62" result="shape"/>
</filter>
<filter id="filter3_d_0_62" x="711" y="-2.15828" width="252.001" height="66.102" filterUnits="userSpaceOnUse" color-interpolation-filters="sRGB">
<feFlood flood-opacity="0" result="BackgroundImageFix"/>
<feColorMatrix in="SourceAlpha" type="matrix" values="0 0 0 0 0 0 0 0 0 0 0 0 0 0 0 0 0 0 127 0" result="hardAlpha"/>
<feOffset dx="10" dy="4"/>
<feGaussianBlur stdDeviation="5"/>
<feComposite in2="hardAlpha" operator="out"/>
<feColorMatrix type="matrix" values="0 0 0 0 0 0 0 0 0 0 0 0 0 0 0 0 0 0 0.25 0"/>
<feBlend mode="normal" in2="BackgroundImageFix" result="effect1_dropShadow_0_62"/>
<feBlend mode="normal" in="SourceGraphic" in2="effect1_dropShadow_0_62" result="shape"/>
</filter>
<filter id="filter4_d_0_62" x="948" y="-6.00021" width="252.001" height="73.7858" filterUnits="userSpaceOnUse" color-interpolation-filters="sRGB">
<feFlood flood-opacity="0" result="BackgroundImageFix"/>
<feColorMatrix in="SourceAlpha" type="matrix" values="0 0 0 0 0 0 0 0 0 0 0 0 0 0 0 0 0 0 127 0" result="hardAlpha"/>
<feOffset dx="10" dy="4"/>
<feGaussianBlur stdDeviation="5"/>
<feComposite in2="hardAlpha" operator="out"/>
<feColorMatrix type="matrix" values="0 0 0 0 0 0 0 0 0 0 0 0 0 0 0 0 0 0 0.25 0"/>
<feBlend mode="normal" in2="BackgroundImageFix" result="effect1_dropShadow_0_62"/>
<feBlend mode="normal" in="SourceGraphic" in2="effect1_dropShadow_0_62" result="shape"/>
</filter>
<filter id="filter5_d_0_62" x="1185" y="-2.15828" width="252" height="66.102" filterUnits="userSpaceOnUse" color-interpolation-filters="sRGB">
<feFlood flood-opacity="0" result="BackgroundImageFix"/>
<feColorMatrix in="SourceAlpha" type="matrix" values="0 0 0 0 0 0 0 0 0 0 0 0 0 0 0 0 0 0 127 0" result="hardAlpha"/>
<feOffset dx="10" dy="4"/>
<feGaussianBlur stdDeviation="5"/>
<feComposite in2="hardAlpha" operator="out"/>
<feColorMatrix type="matrix" values="0 0 0 0 0 0 0 0 0 0 0 0 0 0 0 0 0 0 0.25 0"/>
<feBlend mode="normal" in2="BackgroundImageFix" result="effect1_dropShadow_0_62"/>
<feBlend mode="normal" in="SourceGraphic" in2="effect1_dropShadow_0_62" result="shape"/>
</filter>
</defs>
</svg>
