<svg width="20" height="17" viewBox="0 0 20 17" fill="none" xmlns="http://www.w3.org/2000/svg">
<path d="M16.6668 3.06174H1.33334V0.765436C1.33334 0.56243 1.2631 0.367739 1.13808 0.224191C1.01305 0.080644 0.843482 0 0.66667 0C0.489859 0 0.320288 0.080644 0.195263 0.224191C0.0702382 0.367739 0 0.56243 0 0.765436V16.0742C0 16.2772 0.0702382 16.4718 0.195263 16.6154C0.320288 16.759 0.489859 16.8396 0.66667 16.8396C0.843482 16.8396 1.01305 16.759 1.13808 16.6154C1.2631 16.4718 1.33334 16.2772 1.33334 16.0742V13.0124H18.6668V16.0742C18.6668 16.2772 18.737 16.4718 18.8621 16.6154C18.9871 16.759 19.1566 16.8396 19.3334 16.8396C19.5103 16.8396 19.6798 16.759 19.8048 16.6154C19.9299 16.4718 20.0001 16.2772 20.0001 16.0742V6.88893C19.9991 5.87425 19.6476 4.90145 19.0227 4.18396C18.3978 3.46648 17.5505 3.06288 16.6668 3.06174ZM1.33334 4.59262H7.33337V11.4815H1.33334V4.59262Z" fill="#636363"/>
</svg>
